<?xml version="1.0" encoding="UTF-8"?>
<svg width="20px" height="17px" viewBox="0 0 20 17" version="1.1" xmlns="http://www.w3.org/2000/svg"
    xmlns:xlink="http://www.w3.org/1999/xlink">
    <title>Down Arror</title>
    <g id="down-arrow" fill="#000000" stroke="none" stroke-width="1" fill-rule="evenodd">
        <path
            d="M7.2939,0.3918375 C7.8163,-0.1306125 8.6571,-0.1306125 9.1796,0.3918375 C9.4408,0.6530675 9.5714,0.9918375 9.5714,1.3346975 C9.5714,1.6775575 9.4408,2.0163275 9.1796,2.2775575 L4.551,6.9061275 L18.66531,6.9061275 C19.4,6.9061275 20,7.5020475 20,8.2407975 C20,8.9754975 19.404082,9.5754975 18.66531,9.5754975 L4.551,9.5754975 L9.1796,14.1958975 C9.702,14.7183975 9.702,15.5591975 9.1796,16.0815975 C8.6571,16.6040975 7.8163,16.6040975 7.2939,16.0815975 L0.3918,9.1795975 C0.1429,8.9305975 0,8.5917975 0,8.2366975 C0,7.8816375 0.1388,7.5428575 0.3918,7.2938775"></path>
    </g>
</svg>